<svg width="57" height="57" viewBox="0 0 57 57" fill="none" xmlns="http://www.w3.org/2000/svg">
<rect x="0.925781" y="0.0429688" width="56" height="56" rx="28" fill="#866C20"/>
<path fill-rule="evenodd" clip-rule="evenodd" d="M28.8958 12.8867C20.1997 12.8867 13.1562 19.9022 13.1562 28.5637C13.1562 35.5007 17.6617 41.36 23.9182 43.4372C24.7052 43.5744 25.0003 43.1041 25.0003 42.6926C25.0003 42.3202 24.9806 41.0857 24.9806 39.7727C21.026 40.4978 20.003 38.8125 19.6882 37.9307C19.5111 37.48 18.7438 36.0886 18.0749 35.7163C17.524 35.4224 16.737 34.6973 18.0552 34.6777C19.2947 34.6581 20.18 35.8143 20.4751 36.2846C21.8917 38.6557 24.1543 37.9895 25.0593 37.5779C25.197 36.5589 25.6102 35.8731 26.0627 35.4811C22.5606 35.0892 18.9012 33.7371 18.9012 27.7406C18.9012 26.0358 19.5111 24.6248 20.5145 23.5275C20.3571 23.1355 19.8062 21.5286 20.6719 19.3731C20.6719 19.3731 21.9901 18.9615 25.0003 20.98C26.2594 20.6272 27.5973 20.4509 28.9352 20.4509C30.273 20.4509 31.6109 20.6272 32.8701 20.98C35.8803 18.9419 37.1984 19.3731 37.1984 19.3731C38.0641 21.5286 37.5132 23.1355 37.3558 23.5275C38.3592 24.6248 38.9691 26.0162 38.9691 27.7406C38.9691 33.7567 35.29 35.0892 31.788 35.4811C32.3585 35.9711 32.8504 36.9117 32.8504 38.3814C32.8504 40.4782 32.8307 42.1635 32.8307 42.6926C32.8307 43.1041 33.1258 43.594 33.9128 43.4372C40.1299 41.36 44.6354 35.4811 44.6354 28.5637C44.6354 19.9022 37.5919 12.8867 28.8958 12.8867Z" fill="white"/>
</svg>