<svg width="96" height="97" viewBox="0 0 96 97" fill="none" xmlns="http://www.w3.org/2000/svg">
<rect y="0.438477" width="96" height="96" rx="48" fill="#FF5733"/>
<path d="M40.0109 48.5614C40.0109 44.1393 43.5936 40.5536 48.0144 40.5536C52.4352 40.5536 56.0198 44.1393 56.0198 48.5614C56.0198 52.9834 52.4352 56.5691 48.0144 56.5691C43.5936 56.5691 40.0109 52.9834 40.0109 48.5614ZM35.6833 48.5614C35.6833 55.3738 41.2039 60.896 48.0144 60.896C54.8249 60.896 60.3455 55.3738 60.3455 48.5614C60.3455 41.7489 54.8249 36.2267 48.0144 36.2267C41.2039 36.2267 35.6833 41.7489 35.6833 48.5614ZM57.9519 35.7376C57.9517 36.3077 58.1205 36.8651 58.437 37.3393C58.7534 37.8135 59.2033 38.1831 59.7298 38.4015C60.2563 38.6199 60.8357 38.6772 61.3947 38.5662C61.9538 38.4552 62.4674 38.1808 62.8705 37.7779C63.2737 37.3749 63.5484 36.8614 63.6598 36.3023C63.7712 35.7432 63.7144 35.1635 63.4965 34.6367C63.2786 34.1099 62.9094 33.6596 62.4356 33.3427C61.9619 33.0257 61.4048 32.8565 60.8348 32.8562H60.8337C60.0697 32.8566 59.3371 33.1602 58.7968 33.7005C58.2565 34.2408 57.9526 34.9734 57.9519 35.7376ZM38.3126 68.1142C35.9713 68.0075 34.6987 67.6174 33.853 67.2878C32.7318 66.8512 31.9319 66.3312 31.0908 65.491C30.2497 64.6509 29.7291 63.8514 29.2945 62.7299C28.9648 61.8844 28.5748 60.611 28.4684 58.2691C28.352 55.737 28.3287 54.9764 28.3287 48.5616C28.3287 42.1467 28.3539 41.3882 28.4684 38.8541C28.575 36.5121 28.9679 35.2413 29.2945 34.3932C29.731 33.2717 30.2509 32.4715 31.0908 31.6302C31.9307 30.7889 32.7299 30.2681 33.853 29.8334C34.6983 29.5036 35.9713 29.1135 38.3126 29.007C40.8439 28.8906 41.6043 28.8673 48.0144 28.8673C54.4245 28.8673 55.1857 28.8925 57.7191 29.007C60.0604 29.1137 61.3309 29.5067 62.1787 29.8334C63.2999 30.2681 64.0998 30.79 64.9409 31.6302C65.782 32.4703 66.3007 33.2717 66.7372 34.3932C67.0669 35.2388 67.4568 36.5121 67.5633 38.8541C67.6797 41.3882 67.7029 42.1467 67.7029 48.5616C67.7029 54.9764 67.6797 55.7349 67.5633 58.2691C67.4567 60.611 67.0647 61.884 66.7372 62.7299C66.3007 63.8514 65.7808 64.6516 64.9409 65.491C64.101 66.3304 63.2999 66.8512 62.1787 67.2878C61.3334 67.6176 60.0604 68.0077 57.7191 68.1142C55.1878 68.2306 54.4274 68.2539 48.0144 68.2539C41.6014 68.2539 40.8431 68.2306 38.3126 68.1142ZM38.1137 24.6855C35.5573 24.802 33.8104 25.2074 32.2848 25.8013C30.7048 26.4145 29.3673 27.2372 28.0308 28.572C26.6942 29.9068 25.8739 31.2468 25.2609 32.8272C24.6672 34.3542 24.2619 36.1006 24.1454 38.6579C24.0271 41.2191 24 42.0379 24 48.5614C24 55.0848 24.0271 55.9036 24.1454 58.4649C24.2619 61.0223 24.6672 62.7686 25.2609 64.2955C25.8739 65.875 26.6944 67.2165 28.0308 68.5508C29.3671 69.885 30.7048 70.7065 32.2848 71.3215C33.8132 71.9153 35.5573 72.3208 38.1137 72.4372C40.6756 72.5537 41.4929 72.5827 48.0144 72.5827C54.5359 72.5827 55.3545 72.5556 57.9151 72.4372C60.4717 72.3208 62.2175 71.9153 63.744 71.3215C65.323 70.7065 66.6615 69.8856 67.998 68.5508C69.3346 67.216 70.1532 65.875 70.768 64.2955C71.3616 62.7686 71.7689 61.0221 71.8834 58.4649C71.9998 55.9017 72.0269 55.0848 72.0269 48.5614C72.0269 42.0379 71.9998 41.2191 71.8834 38.6579C71.7669 36.1005 71.3616 34.3532 70.768 32.8272C70.1532 31.2478 69.3325 29.9089 67.998 28.572C66.6636 27.235 65.323 26.4145 63.7459 25.8013C62.2175 25.2074 60.4715 24.8 57.917 24.6855C55.3565 24.5691 54.5379 24.54 48.0163 24.54C41.4948 24.54 40.6756 24.5671 38.1137 24.6855Z" fill="white"/>
</svg>