<svg width="96" height="96" viewBox="0 0 96 96" fill="none" xmlns="http://www.w3.org/2000/svg">
<rect width="96" height="96" rx="48" fill="#FF5733"/>
<path d="M36.9554 67.4528V41.5204H28.3435V67.4528H36.9563H36.9554ZM32.6513 37.9804C35.6538 37.9804 37.523 35.9891 37.523 33.5005C37.4668 30.9553 35.6538 29.0195 32.7084 29.0195C29.761 29.0195 27.8359 30.9553 27.8359 33.5003C27.8359 35.9889 29.7045 37.9802 32.5949 37.9802H32.6506L32.6513 37.9804ZM41.7222 67.4528H50.3334V52.9725C50.3334 52.1985 50.3896 51.4225 50.6171 50.8696C51.2394 49.3204 52.6563 47.7168 55.0359 47.7168C58.1512 47.7168 59.3982 50.0947 59.3982 53.5812V67.4528H68.0092V52.5839C68.0092 44.619 63.7613 40.9124 58.0955 40.9124C53.4503 40.9124 51.4102 43.511 50.2767 45.2809H50.3341V41.5213H41.7226C41.8351 43.9541 41.722 67.4537 41.722 67.4537L41.7222 67.4528Z" fill="white"/>
</svg>