<svg width="96" height="97" viewBox="0 0 96 97" fill="none" xmlns="http://www.w3.org/2000/svg">
<rect y="0.438477" width="96" height="96" rx="48" fill="#FF5733"/>
<path d="M71.8273 33.2395C70.2421 33.9223 68.5757 34.3978 66.8692 34.6541C67.667 34.5172 68.841 33.0798 69.3083 32.498C70.0183 31.6204 70.5593 30.6186 70.904 29.5434C70.904 29.4635 70.9838 29.3494 70.904 29.2924C70.8638 29.2704 70.8187 29.2589 70.7729 29.2589C70.7271 29.2589 70.6821 29.2704 70.6419 29.2924C68.7888 30.2968 66.8166 31.0633 64.772 31.574C64.7007 31.5958 64.6248 31.5977 64.5526 31.5796C64.4803 31.5615 64.4143 31.5241 64.3616 31.4713C64.2025 31.2816 64.0312 31.1025 63.8487 30.9351C63.0148 30.1873 62.0686 29.5752 61.0448 29.1213C59.6629 28.5538 58.1702 28.308 56.6795 28.4026C55.233 28.494 53.8208 28.8823 52.5306 29.5434C51.2602 30.2403 50.1436 31.1871 49.248 32.3269C48.306 33.5001 47.6259 34.8615 47.2534 36.3197C46.9463 37.7068 46.9114 39.1403 47.1508 40.5407C47.1508 40.7802 47.1508 40.8145 46.9457 40.7802C38.819 39.5824 32.1512 36.6962 26.703 30.5016C26.4637 30.2278 26.3383 30.2278 26.1445 30.5016C23.7738 34.1066 24.925 39.8106 27.8884 42.6283C28.2873 43.0048 28.6977 43.3699 29.1308 43.7121C27.7721 43.6156 26.4465 43.247 25.2327 42.6283C25.0047 42.48 24.8794 42.5599 24.868 42.8337C24.8357 43.2133 24.8357 43.5949 24.868 43.9745C25.1058 45.7936 25.8221 47.5169 26.9435 48.9681C28.065 50.4192 29.5514 51.5463 31.2508 52.2339C31.665 52.4115 32.0967 52.5453 32.5387 52.6332C31.2809 52.881 29.9908 52.9196 28.7205 52.7473C28.4469 52.6902 28.3443 52.8385 28.4469 53.1009C30.1224 57.6641 33.7583 59.0559 36.4254 59.8316C36.7902 59.8887 37.1549 59.8887 37.5652 59.9799C37.5652 59.9799 37.5652 59.9799 37.4968 60.0484C36.7104 61.4858 33.5304 62.4555 32.0714 62.9574C29.4085 63.9148 26.5693 64.2807 23.751 64.0298C23.3065 63.9613 23.2039 63.9727 23.0899 64.0298C22.9759 64.0868 23.0899 64.2123 23.2153 64.3264C23.7852 64.7029 24.3551 65.0337 24.9478 65.3531C26.7122 66.3164 28.5776 67.0815 30.5099 67.6347C40.5173 70.3955 51.7784 68.3648 59.2896 60.8926C65.1937 55.0289 67.2681 46.9406 67.2681 38.8409C67.2681 38.5329 67.6442 38.3503 67.8608 38.1906C69.3545 37.0257 70.6714 35.6501 71.7703 34.1066C71.9606 33.8765 72.0581 33.5835 72.0438 33.2852C72.0438 33.1141 72.0438 33.1483 71.8273 33.2395Z" fill="white"/>
</svg>