<svg width="96" height="96" viewBox="0 0 96 96" fill="none" xmlns="http://www.w3.org/2000/svg">
<rect width="96" height="96" rx="48" fill="#FF5733"/>
<path d="M74.7007 34.7954C74.074 32.4391 72.2198 30.5802 69.8607 29.9431C65.5952 28.7998 48.4811 28.7998 48.4811 28.7998C48.4811 28.7998 31.3757 28.7998 27.1015 29.9431C24.7511 30.5714 22.8969 32.4303 22.2615 34.7954C21.1211 39.0718 21.1211 47.9998 21.1211 47.9998C21.1211 47.9998 21.1211 56.9278 22.2615 61.2042C22.8882 63.5605 24.7424 65.4194 27.1015 66.0565C31.3757 67.1998 48.4811 67.1998 48.4811 67.1998C48.4811 67.1998 65.5952 67.1998 69.8607 66.0565C72.2111 65.4282 74.0653 63.5693 74.7007 61.2042C75.8411 56.9278 75.8411 47.9998 75.8411 47.9998C75.8411 47.9998 75.8411 39.0718 74.7007 34.7954Z" fill="white"/>
<path d="M43.0143 56.2296L57.2297 47.9998L43.0143 39.77V56.2296Z" fill="#FF5733"/>
</svg>